<?xml version="1.0" encoding="UTF-8"?>
<svg width="100" height="100" viewBox="0 0 100 100" fill="none" xmlns="http://www.w3.org/2000/svg">
  <rect width="100" height="100" rx="50" fill="#E2E8F0"/>
  <path d="M35 45C35 41.134 38.134 38 42 38C45.866 38 49 41.134 49 45C49 48.866 45.866 52 42 52C38.134 52 35 48.866 35 45Z" fill="#94A3B8"/>
  <path d="M65 45C65 41.134 68.134 38 72 38C75.866 38 79 41.134 79 45C79 48.866 75.866 52 72 52C68.134 52 65 48.866 65 45Z" fill="#94A3B8"/>
  <path d="M30 65C30 65 35 75 50 75C65 75 70 65 70 65" stroke="#94A3B8" stroke-width="4" stroke-linecap="round"/>
  <path d="M30 25C45 15 55 15 70 25" stroke="#94A3B8" stroke-width="4" stroke-linecap="round"/>
</svg>
